<?xml version="1.0" encoding="utf-8"?>
<?xml-stylesheet type="text/xsl" href="rss1.xsl"?>
<rss version="2.0" xmlns:atom="http://www.w3.org/2005/Atom" xmlns:content="http://purl.org/rss/1.0/modules/content/" xmlns:dc="http://purl.org/dc/elements/1.1/" xmlns:media="http://search.yahoo.com/mrss/">
<channel>
 <title>Getty</title>
 <link>http://www.gettyimg.com/</link>
 <atom:link href="http://www.gettyimg.com/" rel="self" type="application/rss+xml" />

 
                <item>
                <title><![CDATA[【SD】DVD - Armin Van Buuren, Sophie Ellis Bextor - Not Giving Up On Love (2010) (Promo Only)]]></title>
                <link><![CDATA[https://sharemania.us/threads/armin-van-buuren-sophie-ellis-bextor-not-giving-up-on-love-2010-promo-only.230157/]]></link>
                <description><![CDATA[<article>
<blockquote class="messageText SelectQuoteContainer ugc baseHtml">
<div style="text-align: center"><img src="https://i.discogs.com/QivM1D-6HJM0v52GgMvf2abN7yfP6tYrpRb7RvOpeUs/rs:fit/g:sm/q:90/h:600/w:600/czM6Ly9kaXNjb2dz/LWRhdGFiYXNlLWlt/YWdlcy9SLTI0MTAw/MjgtMTI4MjQ4NjI4/Mi5qcGVn.jpeg" class="bbCodeImage LbImage" alt="[​IMG]" data-url="https://i.discogs.com/QivM1D-6HJM0v52GgMvf2abN7yfP6tYrpRb7RvOpeUs/rs:fit/g:sm/q:90/h:600/w:600/czM6Ly9kaXNjb2dz/LWRhdGFiYXNlLWlt/YWdlcy9SLTI0MTAw/MjgtMTI4MjQ4NjI4/Mi5qcGVn.jpeg" style=""> <br>
<img src="https://i.postimg.cc/vmkgsGCt/Armin-Van-Buuren-feat-Sophie-Ellis-Bextor-Not-Giving-Up-On-Love-2010-VOB-thumbs.jpg" class="bbCodeImage LbImage" alt="[​IMG]" data-url="https://i.postimg.cc/vmkgsGCt/Armin-Van-Buuren-feat-Sophie-Ellis-Bextor-Not-Giving-Up-On-Love-2010-VOB-thumbs.jpg" style=""> <br>
<div class="bbCodeBlock bbCodeVfcHH HiddenContent">
<div class="attribution type">Hidden Content:</div>
<blockquote>You must either reply or click 'Like' to see the hidden information contained here.</blockquote>
</div></div>
<div class="messageTextEndMarker">&nbsp;</div>
</blockquote>
</article>]]></description>
                <author><![CDATA[Fan Made]]></author>
                </item>

                
                <item>
                <title><![CDATA[【Apple Music】WEB-RiP - Paloma Faith - How To Leave A Man |Apple Music Web 4K|]]></title>
                <link><![CDATA[https://sharemania.us/threads/paloma-faith-how-to-leave-a-man-apple-music-web-4k.230159/]]></link>
                <description><![CDATA[<article>
<blockquote class="messageText SelectQuoteContainer ugc baseHtml">
<div style="text-align: center"><img src="https://i.imgur.com/uQioTFO.gif" class="bbCodeImage LbImage" alt="[​IMG]" data-url="https://i.imgur.com/uQioTFO.gif" style=""><br>
​</div>
<div class="ToggleTriggerAnchor bbCodeSpoilerContainer">
<button type="button" class="button bbCodeSpoilerButton ToggleTrigger Tooltip JsOnly" data-target="> .SpoilerTarget"><span>Spoiler: <span class="SpoilerTitle">Apple Music</span></span></button>
<div class="SpoilerTarget bbCodeSpoilerText">
<div class="bbCodeBlock bbCodeCode">
<div class="type">Code:</div>
<pre>Format                                   : MPEG-4
Format profile                           : Base Media
Codec ID                                 : isom (isom/iso2/mp41)
File size                                : 629 MiB
Duration                                 : 4 min 6 s
Overall bit rate                         : 21.4 Mb/s
Movie name                               : How To Leave A Man (Official Video)
Performer                                : Paloma Faith
Genre                                    : Pop
ContentType                              : Music Video
Recorded date                            : 2023-10-13
ISRC                                     : GB1102301373

Video
ID                                       : 1
Format                                   : HEVC
Format/Info                              : High Efficiency Video Coding
Format profile                           : Main 10@L5@High
Codec ID                                 : hvc1
Codec ID/Info                            : High Efficiency Video Coding
Duration                                 : 4 min 6 s
Bit rate                                 : 21.1 Mb/s
Width                                    : 3 838 pixels
Height                                   : 2 024 pixels
Display aspect ratio                     : 1.896
Frame rate mode                          : Constant
Frame rate                               : 25.000 FPS
Color space                              : YUV
Chroma subsampling                       : 4:2:0
Bit depth                                : 10 bits
Scan type                                : Progressive
Bits/(Pixel*Frame)                       : 0.109
Stream size                              : 620 MiB (99%)
Title                                    : Core Media Video
Color range                              : Limited
Color primaries                          : BT.709
Transfer characteristics                 : BT.709
Matrix coefficients                      : BT.709
Codec configuration box                  : hvcC

Audio
ID                                       : 2
Format                                   : AAC LC
Format/Info                              : Advanced Audio Codec Low Complexity
Codec ID                                 : mp4a-40-2
Duration                                 : 4 min 6 s
Bit rate mode                            : Constant
Bit rate                                 : 257 kb/s
Channel(s)                               : 2 channels
Channel layout                           : L R
Sampling rate                            : 48.0 kHz
Frame rate                               : 46.875 FPS (1024 SPF)
Compression mode                         : Lossy
Stream size                              : 7.55 MiB (1%)
Title                                    : Core Media Audio
Default                                  : Yes
Alternate group                          : 1</pre>
</div><div style="text-align: center">​</div></div>
</div><div style="text-align: center"><br>
<img src="https://i.postimg.cc/k5WnYdcc/53-removebg-preview-removebg-preview.png" class="bbCodeImage LbImage" alt="[​IMG]" data-url="https://i.postimg.cc/k5WnYdcc/53-removebg-preview-removebg-preview.png" style=""><br>
<div class="bbCodeBlock bbCodeVfcHH HiddenContent">
<div class="attribution type">Hidden Content:</div>
<blockquote>You must reply before you can see the hidden data contained here.</blockquote>
</div></div>
<div class="messageTextEndMarker">&nbsp;</div>
</blockquote>
</article>]]></description>
                <author><![CDATA[fstambuk]]></author>
                </item>

                
                <item>
                <title><![CDATA[【SD】DVD - Sophie Ellis Bextor - Get Over You (Max Reich Vocal Edit) (2001) (Promo Only)]]></title>
                <link><![CDATA[https://sharemania.us/threads/sophie-ellis-bextor-get-over-you-max-reich-vocal-edit-2001-promo-only.230158/]]></link>
                <description><![CDATA[<article>
<blockquote class="messageText SelectQuoteContainer ugc baseHtml">
<div style="text-align: center"><img src="https://i.discogs.com/ZnMoKhRGqfAvkIVjd6iFm97Y6CKfNACryobG9x4YrYA/rs:fit/g:sm/q:90/h:600/w:588/czM6Ly9kaXNjb2dz/LWRhdGFiYXNlLWlt/YWdlcy9SLTM4NzYz/MjUtMTM0Nzc0NzYx/OS0xMTYyLmpwZWc.jpeg" class="bbCodeImage LbImage" alt="[​IMG]" data-url="https://i.discogs.com/ZnMoKhRGqfAvkIVjd6iFm97Y6CKfNACryobG9x4YrYA/rs:fit/g:sm/q:90/h:600/w:588/czM6Ly9kaXNjb2dz/LWRhdGFiYXNlLWlt/YWdlcy9SLTM4NzYz/MjUtMTM0Nzc0NzYx/OS0xMTYyLmpwZWc.jpeg" style=""> <br>
<img src="https://i.postimg.cc/fLp5P3c7/Sophie-Ellis-Bextor-Get-Over-You-Max-Reich-Vocal-Edit-2001-Promo-Only-VOB-thumbs.jpg" class="bbCodeImage LbImage" alt="[​IMG]" data-url="https://i.postimg.cc/fLp5P3c7/Sophie-Ellis-Bextor-Get-Over-You-Max-Reich-Vocal-Edit-2001-Promo-Only-VOB-thumbs.jpg" style=""><br>
<div class="bbCodeBlock bbCodeVfcHH HiddenContent">
<div class="attribution type">Hidden Content:</div>
<blockquote>You must either reply or click 'Like' to see the hidden information contained here.</blockquote>
</div></div>
<div class="messageTextEndMarker">&nbsp;</div>
</blockquote>
</article>]]></description>
                <author><![CDATA[Fan Made]]></author>
                </item>

                </channel></rss>